<?xml version="1.0" encoding="UTF-8" standalone="no"?><!-- Created with Inkscape (http://www.inkscape.org/) -->

<svg width="93.075005mm" height="99.419487mm" viewBox="0 0 93.075005 99.419487" version="1.1" id="svg1" xmlns="http://www.w3.org/2000/svg" xmlns:svg="http://www.w3.org/2000/svg">
    <defs id="defs1"/>
    <g id="layer1" transform="translate(-49.080505,-100.67796)">
        <path id="rect1" style="fill:#ca9dd7;fill-rule:evenodd;stroke-width:0.238526" d="m 49.080505,100.67796 h 93.075005 v 0 L 92.038198,148.5 142.15551,200.09745 v 0 H 49.080505 v 0 z"/>
        <path d="m 58.777226,133.54832 h 7.461168 v 17.74853 h 15.939768 v 7.34812 H 66.238394 v 38.43632 q 0,4.74802 1.69572,6.78288 1.808768,2.03487 6.104592,2.03487 2.487056,0 4.182776,-0.56524 1.808768,-0.56524 3.95668,-1.46963 v 7.34812 q -1.808768,0.56524 -4.408872,1.01743 -2.487056,0.56524 -5.08716,0.56524 -6.78288,0 -10.513464,-3.05229 -4.182776,-3.16535 -4.182776,-10.17432 V 158.64497 H 47.811571 v -7.34812 H 57.98589 Z" id="text1" style="font-size:113.048px;line-height:1.25;font-family:AppleGothic;-inkscape-font-specification:AppleGothic;fill:#857ebb;stroke-width:2.82619" transform="scale(1.1253838,0.88858574)" aria-label="t"/>
    </g>
</svg>
